# xmcd
#
# Track frame offsets:
# 150
# 17900
# 34310
# 49927
# 66062
# 77907
# 101522
# 113765
# 133482
# 148285
# 162695
# 178007
# 192435
# 207242
#
# Disc length: 2994 seconds
#
#
# Revision: 2
# Processed by: cddbd v1.5.1PL0 Copyright (c) Steve Scherf et al.
# Submitted via: FreeRIP 2.92 
#
DISCID=da0bb00e
DTITLE=Roberio e Seus Teclados Vol.2 - Roberio e Seus Teclados Vol.2
DYEAR=2004
DGENRE=Forró
TTITLE0=Medo de Amar
TTITLE1=Nem Vem que não tem
TTITLE2=Ana Maria
TTITLE3=Cara Metade
TTITLE4=Joga o Laço
TTITLE5=Volta Amor
TTITLE6=Meu Grande Amor
TTITLE7=Tchau Amor
TTITLE8=Rodeio de Mulher
TTITLE9=Eu To Zangado
TTITLE10=Frio da Solidão
TTITLE11=Casamento
TTITLE12=Você errou mais do que eu
TTITLE13=Coração Carente
EXTD=
EXTT0=
EXTT1=
EXTT2=
EXTT3=
EXTT4=
EXTT5=
EXTT6=
EXTT7=
EXTT8=
EXTT9=
EXTT10=
EXTT11=
EXTT12=
EXTT13=
PLAYORDER=
